<svg version="1.1" id="Layer_1" xmlns="http://www.w3.org/2000/svg" xmlns:xlink="http://www.w3.org/1999/xlink" x="0px" y="0px"
	 width="100%" viewBox="0 0 500 500" enable-background="new 0 0 500 500" xml:space="preserve">
<path fill="#000000" opacity="0" stroke="none" 
	d="
M228.000000,501.000000 
	C152.355789,501.000000 76.711571,501.000000 1.033677,501.000000 
	C1.033677,334.405243 1.033677,167.810471 1.033677,1.107855 
	C167.545242,1.107855 334.090576,1.107855 501.000000,1.107855 
	C501.000000,77.022255 501.000000,153.045090 500.670319,229.299347 
	C499.840515,225.238007 499.457153,220.927872 498.821777,216.655212 
	C493.586914,181.450394 481.745728,148.627594 462.644592,118.580078 
	C456.436035,108.813499 449.247192,99.670090 442.222260,89.843803 
	C440.030518,91.887650 438.685394,93.092514 437.394745,94.353081 
	C423.327850,108.092072 409.376282,121.952072 395.128845,135.501022 
	C391.835114,138.633286 391.985291,140.555054 394.606049,144.017624 
	C415.665985,171.842285 427.364410,203.366470 429.761047,238.073669 
	C432.130280,272.383118 425.395294,305.005096 408.865601,335.352325 
	C390.451630,369.158875 363.976044,394.868042 329.347412,411.529205 
	C288.049896,431.399017 244.839188,434.794617 200.990341,421.799286 
	C150.354019,406.792389 113.595123,374.537811 90.463013,327.254669 
	C77.218025,300.181274 72.071434,271.250885 73.673698,241.000168 
	C74.962234,216.672562 80.436020,193.462814 91.646385,171.991150 
	C120.930962,115.901192 166.633591,82.271446 229.824875,73.853134 
	C256.397247,70.313171 282.632568,72.794907 308.142242,81.300362 
	C327.078003,87.613937 344.525482,96.842102 361.165558,109.834175 
	C377.304138,92.687920 393.349854,75.640297 409.395599,58.592682 
	C410.654297,58.895573 409.958832,58.709038 409.438477,58.299816 
	C349.572083,11.218166 281.909302,-6.370037 206.944016,6.366993 
	C158.975983,14.517040 116.946762,35.900925 81.530838,69.324562 
	C38.763863,109.685730 12.819315,159.043121 4.750031,217.525650 
	C0.332207,249.544037 1.777503,281.290131 9.764371,312.608612 
	C23.193245,365.266571 50.904018,409.083984 92.645973,443.826447 
	C126.078209,471.652557 164.375031,489.380585 207.192337,497.245209 
	C214.124252,498.518433 221.063919,499.749451 228.000000,501.000000 
M313.413391,248.992783 
	C314.241882,248.910202 315.078217,248.874603 315.897736,248.738007 
	C327.616089,246.784973 338.829620,254.374939 340.855957,265.643951 
	C343.003479,277.586853 335.065186,288.911835 322.950684,290.900116 
	C315.733978,292.084564 308.465576,292.957489 301.215698,293.935730 
	C274.526459,297.536957 247.839447,301.155365 221.140198,304.680969 
	C217.226944,305.197693 213.068024,306.123474 209.341446,305.341461 
	C199.778320,303.334595 189.372314,291.464264 191.649170,279.128967 
	C198.042740,244.490601 202.690857,209.532043 208.186249,174.724854 
	C210.066589,162.814987 221.578445,154.313522 232.671494,156.187286 
	C244.624130,158.206238 252.596359,169.246872 250.779785,181.432205 
	C249.701630,188.664429 248.371811,195.858948 247.269913,203.087906 
	C246.347290,209.140793 245.591248,215.219086 244.761444,221.286118 
	C245.122833,221.386627 245.484238,221.487137 245.845627,221.587662 
	C272.594147,195.445633 299.342651,169.303619 326.157837,143.096451 
	C278.159027,108.109222 198.811646,109.667160 151.016800,166.634842 
	C105.031113,221.446152 112.535965,304.832458 167.364044,350.817169 
	C222.159760,396.774750 307.051636,390.608307 353.911865,332.516113 
	C396.198334,280.093903 386.477570,207.978226 356.549713,173.489822 
	C329.440430,200.024811 302.356567,226.534927 274.275879,254.020737 
	C288.146027,252.212265 300.336060,250.622864 313.413391,248.992783 
z"/>
<path fill="#FFFFFF" opacity="1.000000" stroke="none" 
	d="
M228.468658,501.000000 
	C221.063919,499.749451 214.124252,498.518433 207.192337,497.245209 
	C164.375031,489.380585 126.078209,471.652557 92.645973,443.826447 
	C50.904018,409.083984 23.193245,365.266571 9.764371,312.608612 
	C1.777503,281.290131 0.332207,249.544037 4.750031,217.525650 
	C12.819315,159.043121 38.763863,109.685730 81.530838,69.324562 
	C116.946762,35.900925 158.975983,14.517040 206.944016,6.366993 
	C281.909302,-6.370037 349.572083,11.218166 409.438477,58.299816 
	C409.958832,58.709038 410.654297,58.895573 409.395599,58.592682 
	C393.349854,75.640297 377.304138,92.687920 361.165558,109.834175 
	C344.525482,96.842102 327.078003,87.613937 308.142242,81.300362 
	C282.632568,72.794907 256.397247,70.313171 229.824875,73.853134 
	C166.633591,82.271446 120.930962,115.901192 91.646385,171.991150 
	C80.436020,193.462814 74.962234,216.672562 73.673698,241.000168 
	C72.071434,271.250885 77.218025,300.181274 90.463013,327.254669 
	C113.595123,374.537811 150.354019,406.792389 200.990341,421.799286 
	C244.839188,434.794617 288.049896,431.399017 329.347412,411.529205 
	C363.976044,394.868042 390.451630,369.158875 408.865601,335.352325 
	C425.395294,305.005096 432.130280,272.383118 429.761047,238.073669 
	C427.364410,203.366470 415.665985,171.842285 394.606049,144.017624 
	C391.985291,140.555054 391.835114,138.633286 395.128845,135.501022 
	C409.376282,121.952072 423.327850,108.092072 437.394745,94.353081 
	C438.685394,93.092514 440.030518,91.887650 442.222260,89.843803 
	C449.247192,99.670090 456.436035,108.813499 462.644592,118.580078 
	C481.745728,148.627594 493.586914,181.450394 498.821777,216.655212 
	C499.457153,220.927872 499.840515,225.238007 500.670319,229.765381 
	C501.000000,244.354233 501.000000,258.708466 500.670532,273.759247 
	C497.198090,290.569794 495.292206,307.047272 490.684204,322.730835 
	C475.804779,373.373993 447.147827,415.073792 405.710419,447.787109 
	C371.595917,474.719330 332.924347,491.425568 289.940247,498.070007 
	C283.626740,499.045929 277.313416,500.023285 271.000000,501.000000 
	C256.979095,501.000000 242.958206,501.000000 228.468658,501.000000 
z"/>
<path fill="#FFFFFF" opacity="1.000000" stroke="none" 
	d="
M312.969727,249.013123 
	C300.336060,250.622864 288.146027,252.212265 274.275879,254.020737 
	C302.356567,226.534927 329.440430,200.024811 356.549713,173.489822 
	C386.477570,207.978226 396.198334,280.093903 353.911865,332.516113 
	C307.051636,390.608307 222.159760,396.774750 167.364044,350.817169 
	C112.535965,304.832458 105.031113,221.446152 151.016800,166.634842 
	C198.811646,109.667160 278.159027,108.109222 326.157837,143.096451 
	C299.342651,169.303619 272.594147,195.445633 245.845627,221.587662 
	C245.484238,221.487137 245.122833,221.386627 244.761444,221.286118 
	C245.591248,215.219086 246.347290,209.140793 247.269913,203.087906 
	C248.371811,195.858948 249.701630,188.664429 250.779785,181.432205 
	C252.596359,169.246872 244.624130,158.206238 232.671494,156.187286 
	C221.578445,154.313522 210.066589,162.814987 208.186249,174.724854 
	C202.690857,209.532043 198.042740,244.490601 191.649170,279.128967 
	C189.372314,291.464264 199.778320,303.334595 209.341446,305.341461 
	C213.068024,306.123474 217.226944,305.197693 221.140198,304.680969 
	C247.839447,301.155365 274.526459,297.536957 301.215698,293.935730 
	C308.465576,292.957489 315.733978,292.084564 322.950684,290.900116 
	C335.065186,288.911835 343.003479,277.586853 340.855957,265.643951 
	C338.829620,254.374939 327.616089,246.784973 315.897736,248.738007 
	C315.078217,248.874603 314.241882,248.910202 312.969727,249.013123 
z"/>
</svg>